<mxfile host="app.diagrams.net" modified="2023-11-14T16:46:56.060Z" agent="Mozilla/5.0 (Windows NT 10.0; Win64; x64) AppleWebKit/537.36 (KHTML, like Gecko) Chrome/119.0.0.0 Safari/537.36" etag="o6dR8_QiQgQXmsZ4LRe_" version="22.1.0" type="device">
  <diagram id="C5RBs43oDa-KdzZeNtuy" name="Page-1">
    <mxGraphModel dx="1120" dy="460" grid="1" gridSize="10" guides="1" tooltips="1" connect="1" arrows="1" fold="1" page="1" pageScale="1" pageWidth="827" pageHeight="1169" math="0" shadow="0">
      <root>
        <mxCell id="WIyWlLk6GJQsqaUBKTNV-0" />
        <mxCell id="WIyWlLk6GJQsqaUBKTNV-1" parent="WIyWlLk6GJQsqaUBKTNV-0" />
        <mxCell id="TBQeDrBXilc8pnj-x0cU-3" value="" style="edgeStyle=orthogonalEdgeStyle;rounded=0;orthogonalLoop=1;jettySize=auto;html=1;" edge="1" parent="WIyWlLk6GJQsqaUBKTNV-1" source="TBQeDrBXilc8pnj-x0cU-0" target="TBQeDrBXilc8pnj-x0cU-2">
          <mxGeometry relative="1" as="geometry" />
        </mxCell>
        <mxCell id="TBQeDrBXilc8pnj-x0cU-0" value="Start" style="ellipse;whiteSpace=wrap;html=1;" vertex="1" parent="WIyWlLk6GJQsqaUBKTNV-1">
          <mxGeometry x="20" y="30" width="120" height="80" as="geometry" />
        </mxCell>
        <mxCell id="TBQeDrBXilc8pnj-x0cU-7" value="" style="edgeStyle=orthogonalEdgeStyle;rounded=0;orthogonalLoop=1;jettySize=auto;html=1;" edge="1" parent="WIyWlLk6GJQsqaUBKTNV-1" source="TBQeDrBXilc8pnj-x0cU-2" target="TBQeDrBXilc8pnj-x0cU-6">
          <mxGeometry relative="1" as="geometry" />
        </mxCell>
        <mxCell id="TBQeDrBXilc8pnj-x0cU-2" value="Process Menu" style="whiteSpace=wrap;html=1;" vertex="1" parent="WIyWlLk6GJQsqaUBKTNV-1">
          <mxGeometry x="20" y="150" width="120" height="60" as="geometry" />
        </mxCell>
        <mxCell id="TBQeDrBXilc8pnj-x0cU-25" style="edgeStyle=orthogonalEdgeStyle;rounded=0;orthogonalLoop=1;jettySize=auto;html=1;entryX=0.5;entryY=0;entryDx=0;entryDy=0;" edge="1" parent="WIyWlLk6GJQsqaUBKTNV-1" source="TBQeDrBXilc8pnj-x0cU-6" target="TBQeDrBXilc8pnj-x0cU-23">
          <mxGeometry relative="1" as="geometry" />
        </mxCell>
        <mxCell id="TBQeDrBXilc8pnj-x0cU-6" value="Input choice" style="shape=parallelogram;perimeter=parallelogramPerimeter;whiteSpace=wrap;html=1;fixedSize=1;" vertex="1" parent="WIyWlLk6GJQsqaUBKTNV-1">
          <mxGeometry x="20" y="260" width="120" height="60" as="geometry" />
        </mxCell>
        <mxCell id="TBQeDrBXilc8pnj-x0cU-14" value="End" style="ellipse;whiteSpace=wrap;html=1;" vertex="1" parent="WIyWlLk6GJQsqaUBKTNV-1">
          <mxGeometry x="380" y="935" width="120" height="80" as="geometry" />
        </mxCell>
        <mxCell id="TBQeDrBXilc8pnj-x0cU-29" style="edgeStyle=orthogonalEdgeStyle;rounded=0;orthogonalLoop=1;jettySize=auto;html=1;entryX=0.5;entryY=0;entryDx=0;entryDy=0;" edge="1" parent="WIyWlLk6GJQsqaUBKTNV-1" source="TBQeDrBXilc8pnj-x0cU-16" target="TBQeDrBXilc8pnj-x0cU-19">
          <mxGeometry relative="1" as="geometry" />
        </mxCell>
        <mxCell id="TBQeDrBXilc8pnj-x0cU-75" style="edgeStyle=orthogonalEdgeStyle;rounded=0;orthogonalLoop=1;jettySize=auto;html=1;entryX=0;entryY=0.5;entryDx=0;entryDy=0;" edge="1" parent="WIyWlLk6GJQsqaUBKTNV-1" source="TBQeDrBXilc8pnj-x0cU-16" target="TBQeDrBXilc8pnj-x0cU-74">
          <mxGeometry relative="1" as="geometry" />
        </mxCell>
        <mxCell id="TBQeDrBXilc8pnj-x0cU-16" value="Add option" style="rhombus;whiteSpace=wrap;html=1;" vertex="1" parent="WIyWlLk6GJQsqaUBKTNV-1">
          <mxGeometry x="200" y="370" width="120" height="100" as="geometry" />
        </mxCell>
        <mxCell id="TBQeDrBXilc8pnj-x0cU-31" style="edgeStyle=orthogonalEdgeStyle;rounded=0;orthogonalLoop=1;jettySize=auto;html=1;entryX=0.5;entryY=0;entryDx=0;entryDy=0;" edge="1" parent="WIyWlLk6GJQsqaUBKTNV-1" source="TBQeDrBXilc8pnj-x0cU-18" target="TBQeDrBXilc8pnj-x0cU-20">
          <mxGeometry relative="1" as="geometry" />
        </mxCell>
        <mxCell id="TBQeDrBXilc8pnj-x0cU-80" style="edgeStyle=orthogonalEdgeStyle;rounded=0;orthogonalLoop=1;jettySize=auto;html=1;entryX=0;entryY=0.5;entryDx=0;entryDy=0;" edge="1" parent="WIyWlLk6GJQsqaUBKTNV-1" source="TBQeDrBXilc8pnj-x0cU-18" target="TBQeDrBXilc8pnj-x0cU-77">
          <mxGeometry relative="1" as="geometry" />
        </mxCell>
        <mxCell id="TBQeDrBXilc8pnj-x0cU-18" value="multiply option" style="rhombus;whiteSpace=wrap;html=1;" vertex="1" parent="WIyWlLk6GJQsqaUBKTNV-1">
          <mxGeometry x="205" y="640" width="110" height="100" as="geometry" />
        </mxCell>
        <mxCell id="TBQeDrBXilc8pnj-x0cU-30" style="edgeStyle=orthogonalEdgeStyle;rounded=0;orthogonalLoop=1;jettySize=auto;html=1;" edge="1" parent="WIyWlLk6GJQsqaUBKTNV-1" source="TBQeDrBXilc8pnj-x0cU-19" target="TBQeDrBXilc8pnj-x0cU-18">
          <mxGeometry relative="1" as="geometry" />
        </mxCell>
        <mxCell id="TBQeDrBXilc8pnj-x0cU-79" style="edgeStyle=orthogonalEdgeStyle;rounded=0;orthogonalLoop=1;jettySize=auto;html=1;entryX=0;entryY=0.5;entryDx=0;entryDy=0;" edge="1" parent="WIyWlLk6GJQsqaUBKTNV-1" source="TBQeDrBXilc8pnj-x0cU-19" target="TBQeDrBXilc8pnj-x0cU-76">
          <mxGeometry relative="1" as="geometry" />
        </mxCell>
        <mxCell id="TBQeDrBXilc8pnj-x0cU-19" value="subtract option" style="rhombus;whiteSpace=wrap;html=1;" vertex="1" parent="WIyWlLk6GJQsqaUBKTNV-1">
          <mxGeometry x="205" y="510" width="110" height="100" as="geometry" />
        </mxCell>
        <mxCell id="TBQeDrBXilc8pnj-x0cU-67" style="edgeStyle=orthogonalEdgeStyle;rounded=0;orthogonalLoop=1;jettySize=auto;html=1;entryX=0.5;entryY=0;entryDx=0;entryDy=0;" edge="1" parent="WIyWlLk6GJQsqaUBKTNV-1" source="TBQeDrBXilc8pnj-x0cU-20" target="TBQeDrBXilc8pnj-x0cU-66">
          <mxGeometry relative="1" as="geometry" />
        </mxCell>
        <mxCell id="TBQeDrBXilc8pnj-x0cU-81" style="edgeStyle=orthogonalEdgeStyle;rounded=0;orthogonalLoop=1;jettySize=auto;html=1;entryX=0;entryY=0.5;entryDx=0;entryDy=0;" edge="1" parent="WIyWlLk6GJQsqaUBKTNV-1" source="TBQeDrBXilc8pnj-x0cU-20" target="TBQeDrBXilc8pnj-x0cU-78">
          <mxGeometry relative="1" as="geometry" />
        </mxCell>
        <mxCell id="TBQeDrBXilc8pnj-x0cU-20" value="Divide option" style="rhombus;whiteSpace=wrap;html=1;" vertex="1" parent="WIyWlLk6GJQsqaUBKTNV-1">
          <mxGeometry x="205" y="770" width="110" height="100" as="geometry" />
        </mxCell>
        <mxCell id="TBQeDrBXilc8pnj-x0cU-28" style="edgeStyle=orthogonalEdgeStyle;rounded=0;orthogonalLoop=1;jettySize=auto;html=1;entryX=0;entryY=0.5;entryDx=0;entryDy=0;" edge="1" parent="WIyWlLk6GJQsqaUBKTNV-1" source="TBQeDrBXilc8pnj-x0cU-23" target="TBQeDrBXilc8pnj-x0cU-16">
          <mxGeometry relative="1" as="geometry" />
        </mxCell>
        <mxCell id="TBQeDrBXilc8pnj-x0cU-23" value="Read Choice" style="rounded=0;whiteSpace=wrap;html=1;" vertex="1" parent="WIyWlLk6GJQsqaUBKTNV-1">
          <mxGeometry x="20" y="390" width="120" height="60" as="geometry" />
        </mxCell>
        <mxCell id="TBQeDrBXilc8pnj-x0cU-32" value="No" style="text;html=1;strokeColor=none;fillColor=none;align=center;verticalAlign=middle;whiteSpace=wrap;rounded=0;" vertex="1" parent="WIyWlLk6GJQsqaUBKTNV-1">
          <mxGeometry x="250" y="470" width="60" height="30" as="geometry" />
        </mxCell>
        <mxCell id="TBQeDrBXilc8pnj-x0cU-33" value="No" style="text;html=1;strokeColor=none;fillColor=none;align=center;verticalAlign=middle;whiteSpace=wrap;rounded=0;" vertex="1" parent="WIyWlLk6GJQsqaUBKTNV-1">
          <mxGeometry x="250" y="600" width="60" height="30" as="geometry" />
        </mxCell>
        <mxCell id="TBQeDrBXilc8pnj-x0cU-34" value="No" style="text;html=1;strokeColor=none;fillColor=none;align=center;verticalAlign=middle;whiteSpace=wrap;rounded=0;" vertex="1" parent="WIyWlLk6GJQsqaUBKTNV-1">
          <mxGeometry x="250" y="730" width="60" height="30" as="geometry" />
        </mxCell>
        <mxCell id="TBQeDrBXilc8pnj-x0cU-43" value="Yes" style="text;html=1;strokeColor=none;fillColor=none;align=center;verticalAlign=middle;whiteSpace=wrap;rounded=0;" vertex="1" parent="WIyWlLk6GJQsqaUBKTNV-1">
          <mxGeometry x="310" y="390" width="60" height="30" as="geometry" />
        </mxCell>
        <mxCell id="TBQeDrBXilc8pnj-x0cU-44" value="Yes" style="text;html=1;strokeColor=none;fillColor=none;align=center;verticalAlign=middle;whiteSpace=wrap;rounded=0;" vertex="1" parent="WIyWlLk6GJQsqaUBKTNV-1">
          <mxGeometry x="310" y="530" width="60" height="30" as="geometry" />
        </mxCell>
        <mxCell id="TBQeDrBXilc8pnj-x0cU-45" value="Yes" style="text;html=1;strokeColor=none;fillColor=none;align=center;verticalAlign=middle;whiteSpace=wrap;rounded=0;" vertex="1" parent="WIyWlLk6GJQsqaUBKTNV-1">
          <mxGeometry x="310" y="660" width="60" height="30" as="geometry" />
        </mxCell>
        <mxCell id="TBQeDrBXilc8pnj-x0cU-47" value="Yes" style="text;html=1;strokeColor=none;fillColor=none;align=center;verticalAlign=middle;whiteSpace=wrap;rounded=0;" vertex="1" parent="WIyWlLk6GJQsqaUBKTNV-1">
          <mxGeometry x="310" y="790" width="60" height="30" as="geometry" />
        </mxCell>
        <mxCell id="TBQeDrBXilc8pnj-x0cU-59" style="edgeStyle=orthogonalEdgeStyle;rounded=0;orthogonalLoop=1;jettySize=auto;html=1;entryX=0;entryY=0.5;entryDx=0;entryDy=0;" edge="1" parent="WIyWlLk6GJQsqaUBKTNV-1" source="TBQeDrBXilc8pnj-x0cU-54" target="TBQeDrBXilc8pnj-x0cU-58">
          <mxGeometry relative="1" as="geometry" />
        </mxCell>
        <mxCell id="TBQeDrBXilc8pnj-x0cU-54" value="fiirst num + second num" style="shape=process;whiteSpace=wrap;html=1;backgroundOutline=1;" vertex="1" parent="WIyWlLk6GJQsqaUBKTNV-1">
          <mxGeometry x="510" y="390" width="120" height="60" as="geometry" />
        </mxCell>
        <mxCell id="TBQeDrBXilc8pnj-x0cU-61" style="edgeStyle=orthogonalEdgeStyle;rounded=0;orthogonalLoop=1;jettySize=auto;html=1;" edge="1" parent="WIyWlLk6GJQsqaUBKTNV-1" source="TBQeDrBXilc8pnj-x0cU-55" target="TBQeDrBXilc8pnj-x0cU-60">
          <mxGeometry relative="1" as="geometry" />
        </mxCell>
        <mxCell id="TBQeDrBXilc8pnj-x0cU-55" value="first num - second num" style="shape=process;whiteSpace=wrap;html=1;backgroundOutline=1;" vertex="1" parent="WIyWlLk6GJQsqaUBKTNV-1">
          <mxGeometry x="510" y="530" width="120" height="60" as="geometry" />
        </mxCell>
        <mxCell id="TBQeDrBXilc8pnj-x0cU-63" style="edgeStyle=orthogonalEdgeStyle;rounded=0;orthogonalLoop=1;jettySize=auto;html=1;entryX=0;entryY=0.5;entryDx=0;entryDy=0;" edge="1" parent="WIyWlLk6GJQsqaUBKTNV-1" source="TBQeDrBXilc8pnj-x0cU-56" target="TBQeDrBXilc8pnj-x0cU-62">
          <mxGeometry relative="1" as="geometry" />
        </mxCell>
        <mxCell id="TBQeDrBXilc8pnj-x0cU-56" value="first num * second num" style="shape=process;whiteSpace=wrap;html=1;backgroundOutline=1;" vertex="1" parent="WIyWlLk6GJQsqaUBKTNV-1">
          <mxGeometry x="510" y="660" width="120" height="60" as="geometry" />
        </mxCell>
        <mxCell id="TBQeDrBXilc8pnj-x0cU-65" style="edgeStyle=orthogonalEdgeStyle;rounded=0;orthogonalLoop=1;jettySize=auto;html=1;entryX=0;entryY=0.5;entryDx=0;entryDy=0;" edge="1" parent="WIyWlLk6GJQsqaUBKTNV-1" source="TBQeDrBXilc8pnj-x0cU-57" target="TBQeDrBXilc8pnj-x0cU-64">
          <mxGeometry relative="1" as="geometry" />
        </mxCell>
        <mxCell id="TBQeDrBXilc8pnj-x0cU-57" value="first num / second num" style="shape=process;whiteSpace=wrap;html=1;backgroundOutline=1;" vertex="1" parent="WIyWlLk6GJQsqaUBKTNV-1">
          <mxGeometry x="510" y="790" width="120" height="60" as="geometry" />
        </mxCell>
        <mxCell id="TBQeDrBXilc8pnj-x0cU-87" style="edgeStyle=orthogonalEdgeStyle;rounded=0;orthogonalLoop=1;jettySize=auto;html=1;entryX=1;entryY=0.5;entryDx=0;entryDy=0;" edge="1" parent="WIyWlLk6GJQsqaUBKTNV-1" source="TBQeDrBXilc8pnj-x0cU-58" target="TBQeDrBXilc8pnj-x0cU-2">
          <mxGeometry relative="1" as="geometry">
            <Array as="points">
              <mxPoint x="730" y="240" />
              <mxPoint x="405" y="240" />
              <mxPoint x="405" y="180" />
            </Array>
          </mxGeometry>
        </mxCell>
        <mxCell id="TBQeDrBXilc8pnj-x0cU-58" value="print sum" style="shape=parallelogram;perimeter=parallelogramPerimeter;whiteSpace=wrap;html=1;fixedSize=1;" vertex="1" parent="WIyWlLk6GJQsqaUBKTNV-1">
          <mxGeometry x="670" y="390" width="120" height="60" as="geometry" />
        </mxCell>
        <mxCell id="TBQeDrBXilc8pnj-x0cU-60" value="print difference" style="shape=parallelogram;perimeter=parallelogramPerimeter;whiteSpace=wrap;html=1;fixedSize=1;" vertex="1" parent="WIyWlLk6GJQsqaUBKTNV-1">
          <mxGeometry x="670" y="530" width="120" height="60" as="geometry" />
        </mxCell>
        <mxCell id="TBQeDrBXilc8pnj-x0cU-92" style="edgeStyle=orthogonalEdgeStyle;rounded=0;orthogonalLoop=1;jettySize=auto;html=1;" edge="1" parent="WIyWlLk6GJQsqaUBKTNV-1" source="TBQeDrBXilc8pnj-x0cU-62">
          <mxGeometry relative="1" as="geometry">
            <mxPoint x="800" y="560" as="targetPoint" />
          </mxGeometry>
        </mxCell>
        <mxCell id="TBQeDrBXilc8pnj-x0cU-62" value="print product" style="shape=parallelogram;perimeter=parallelogramPerimeter;whiteSpace=wrap;html=1;fixedSize=1;" vertex="1" parent="WIyWlLk6GJQsqaUBKTNV-1">
          <mxGeometry x="670" y="660" width="120" height="60" as="geometry" />
        </mxCell>
        <mxCell id="TBQeDrBXilc8pnj-x0cU-93" style="edgeStyle=orthogonalEdgeStyle;rounded=0;orthogonalLoop=1;jettySize=auto;html=1;" edge="1" parent="WIyWlLk6GJQsqaUBKTNV-1" source="TBQeDrBXilc8pnj-x0cU-64">
          <mxGeometry relative="1" as="geometry">
            <mxPoint x="810" y="690" as="targetPoint" />
          </mxGeometry>
        </mxCell>
        <mxCell id="TBQeDrBXilc8pnj-x0cU-64" value="print quotient" style="shape=parallelogram;perimeter=parallelogramPerimeter;whiteSpace=wrap;html=1;fixedSize=1;" vertex="1" parent="WIyWlLk6GJQsqaUBKTNV-1">
          <mxGeometry x="670" y="790" width="120" height="60" as="geometry" />
        </mxCell>
        <mxCell id="TBQeDrBXilc8pnj-x0cU-72" style="edgeStyle=orthogonalEdgeStyle;rounded=0;orthogonalLoop=1;jettySize=auto;html=1;entryX=0;entryY=0.5;entryDx=0;entryDy=0;" edge="1" parent="WIyWlLk6GJQsqaUBKTNV-1" source="TBQeDrBXilc8pnj-x0cU-66" target="TBQeDrBXilc8pnj-x0cU-14">
          <mxGeometry relative="1" as="geometry" />
        </mxCell>
        <mxCell id="TBQeDrBXilc8pnj-x0cU-66" value="exit option" style="rhombus;whiteSpace=wrap;html=1;" vertex="1" parent="WIyWlLk6GJQsqaUBKTNV-1">
          <mxGeometry x="210" y="930" width="100" height="90" as="geometry" />
        </mxCell>
        <mxCell id="TBQeDrBXilc8pnj-x0cU-68" value="No" style="text;html=1;strokeColor=none;fillColor=none;align=center;verticalAlign=middle;whiteSpace=wrap;rounded=0;" vertex="1" parent="WIyWlLk6GJQsqaUBKTNV-1">
          <mxGeometry x="250" y="890" width="60" height="30" as="geometry" />
        </mxCell>
        <mxCell id="TBQeDrBXilc8pnj-x0cU-73" value="Yes" style="text;html=1;strokeColor=none;fillColor=none;align=center;verticalAlign=middle;whiteSpace=wrap;rounded=0;" vertex="1" parent="WIyWlLk6GJQsqaUBKTNV-1">
          <mxGeometry x="310" y="950" width="60" height="30" as="geometry" />
        </mxCell>
        <mxCell id="TBQeDrBXilc8pnj-x0cU-82" style="edgeStyle=orthogonalEdgeStyle;rounded=0;orthogonalLoop=1;jettySize=auto;html=1;entryX=0;entryY=0.5;entryDx=0;entryDy=0;" edge="1" parent="WIyWlLk6GJQsqaUBKTNV-1" source="TBQeDrBXilc8pnj-x0cU-74" target="TBQeDrBXilc8pnj-x0cU-54">
          <mxGeometry relative="1" as="geometry" />
        </mxCell>
        <mxCell id="TBQeDrBXilc8pnj-x0cU-74" value="input&amp;nbsp;&lt;br&gt;first &amp;amp;&lt;br&gt;second num" style="shape=parallelogram;perimeter=parallelogramPerimeter;whiteSpace=wrap;html=1;fixedSize=1;" vertex="1" parent="WIyWlLk6GJQsqaUBKTNV-1">
          <mxGeometry x="354" y="390" width="120" height="60" as="geometry" />
        </mxCell>
        <mxCell id="TBQeDrBXilc8pnj-x0cU-83" style="edgeStyle=orthogonalEdgeStyle;rounded=0;orthogonalLoop=1;jettySize=auto;html=1;entryX=0;entryY=0.5;entryDx=0;entryDy=0;" edge="1" parent="WIyWlLk6GJQsqaUBKTNV-1" source="TBQeDrBXilc8pnj-x0cU-76" target="TBQeDrBXilc8pnj-x0cU-55">
          <mxGeometry relative="1" as="geometry" />
        </mxCell>
        <mxCell id="TBQeDrBXilc8pnj-x0cU-76" value="input&amp;nbsp;&lt;br&gt;first &amp;amp;&lt;br&gt;second num" style="shape=parallelogram;perimeter=parallelogramPerimeter;whiteSpace=wrap;html=1;fixedSize=1;" vertex="1" parent="WIyWlLk6GJQsqaUBKTNV-1">
          <mxGeometry x="354" y="530" width="120" height="60" as="geometry" />
        </mxCell>
        <mxCell id="TBQeDrBXilc8pnj-x0cU-84" style="edgeStyle=orthogonalEdgeStyle;rounded=0;orthogonalLoop=1;jettySize=auto;html=1;entryX=0;entryY=0.5;entryDx=0;entryDy=0;" edge="1" parent="WIyWlLk6GJQsqaUBKTNV-1" source="TBQeDrBXilc8pnj-x0cU-77" target="TBQeDrBXilc8pnj-x0cU-56">
          <mxGeometry relative="1" as="geometry" />
        </mxCell>
        <mxCell id="TBQeDrBXilc8pnj-x0cU-77" value="input&amp;nbsp;&lt;br&gt;first &amp;amp;&lt;br&gt;second num" style="shape=parallelogram;perimeter=parallelogramPerimeter;whiteSpace=wrap;html=1;fixedSize=1;" vertex="1" parent="WIyWlLk6GJQsqaUBKTNV-1">
          <mxGeometry x="354" y="660" width="120" height="60" as="geometry" />
        </mxCell>
        <mxCell id="TBQeDrBXilc8pnj-x0cU-85" style="edgeStyle=orthogonalEdgeStyle;rounded=0;orthogonalLoop=1;jettySize=auto;html=1;entryX=0;entryY=0.5;entryDx=0;entryDy=0;" edge="1" parent="WIyWlLk6GJQsqaUBKTNV-1" source="TBQeDrBXilc8pnj-x0cU-78" target="TBQeDrBXilc8pnj-x0cU-57">
          <mxGeometry relative="1" as="geometry" />
        </mxCell>
        <mxCell id="TBQeDrBXilc8pnj-x0cU-78" value="input&amp;nbsp;&lt;br&gt;first &amp;amp;&lt;br&gt;second num" style="shape=parallelogram;perimeter=parallelogramPerimeter;whiteSpace=wrap;html=1;fixedSize=1;" vertex="1" parent="WIyWlLk6GJQsqaUBKTNV-1">
          <mxGeometry x="354" y="790" width="120" height="60" as="geometry" />
        </mxCell>
        <mxCell id="TBQeDrBXilc8pnj-x0cU-90" value="" style="endArrow=classic;html=1;rounded=0;exitX=1;exitY=0.5;exitDx=0;exitDy=0;" edge="1" parent="WIyWlLk6GJQsqaUBKTNV-1" source="TBQeDrBXilc8pnj-x0cU-60">
          <mxGeometry width="50" height="50" relative="1" as="geometry">
            <mxPoint x="810" y="560" as="sourcePoint" />
            <mxPoint x="730" y="350" as="targetPoint" />
            <Array as="points">
              <mxPoint x="800" y="560" />
              <mxPoint x="800" y="350" />
            </Array>
          </mxGeometry>
        </mxCell>
      </root>
    </mxGraphModel>
  </diagram>
</mxfile>
